# File created by Blade
# Date/Time:  Mon Nov 15 14:44:42 2010
#---------------------------------------------------------
:version 1.10
:name HOM
:units
  mass 1.0
  length 1.000000
  angle deg
:documentation
     Acclaim Skeleton File
:root
   axis xyz
   order TX TY TZ RX RY RZ
   position 0.000000 0.000000 0.000000
   orientation 0 0 0
:bonedata
   begin
      id 1
      name LeftUpLeg_dum
      direction 1.000000 0.000000 0.000000
      length 4.719518
      axis 0.0 0.0 0.0 xyz
   end
   begin
      id 2
      name RightUpLeg_dum
      direction -1.000000 0.000000 0.000000
      length 4.719518
      axis 0.0 0.0 0.0 xyz
   end
   begin
      id 3
      name Spine_dum
      direction 0.000000 1.000000 0.000000
      length 0.039370
      axis 0.0 0.0 0.0 xyz
   end
   begin
      id 4
      name LeftUpLeg
      direction 0.000000 -1.000000 0.000000
      length 19.141694
      axis 0.0 0.0 0.0 xyz
      dof rx ry rz
   end
   begin
      id 5
      name LeftLeg
      direction 0.000000 -1.000000 0.000000
      length 19.555040
      axis 0.0 0.0 0.0 xyz
      dof rx ry rz
   end
   begin
      id 6
      name LeftFoot
      direction 0.000000 -0.258819 0.965926
      length 6.929396
      axis 15.0 0.0 0.0 xyz
      dof rx ry rz
   end
   begin
      id 7
      name LeftToeBase
      direction 0.000000 0.000000 1.000000
      length 2.952750
      axis 0.0 0.0 0.0 xyz
      dof rx ry rz
   end
   begin
      id 8
      name RightUpLeg
      direction 0.000000 -1.000000 0.000000
      length 19.141694
      axis 0.0 0.0 0.0 xyz
      dof rx ry rz
   end
   begin
      id 9
      name RightLeg
      direction 0.000000 -1.000000 0.000000
      length 19.555040
      axis 0.0 0.0 0.0 xyz
      dof rx ry rz
   end
   begin
      id 10
      name RightFoot
      direction 0.000000 -0.258819 0.965926
      length 6.929396
      axis 15.0 0.0 0.0 xyz
      dof rx ry rz
   end
   begin
      id 11
      name RightToeBase
      direction 0.000000 0.000000 1.000000
      length 2.952750
      axis 0.0 0.0 0.0 xyz
      dof rx ry rz
   end
   begin
      id 12
      name Spine
      direction 0.000000 1.000000 0.000000
      length 11.965764
      axis 0.0 0.0 0.0 xyz
      dof rx ry rz
   end
   begin
      id 13
      name Spine1
      direction 0.000000 1.000000 0.000000
      length 0.000000
      axis 0.0 0.0 0.0 xyz
      dof rx ry rz
   end
   begin
      id 14
      name Spine1_dum1
      direction 0.000000 1.000000 0.000000
      length 9.788721
      axis 0.0 0.0 0.0 xyz
   end
   begin
      id 15
      name Spine1_dum2
      direction 0.000000 1.000000 0.000000
      length 9.788721
      axis 0.0 0.0 0.0 xyz
   end
   begin
      id 16
      name Spine1_dum3
      direction 0.000000 1.000000 0.000000
      length 9.788721
      axis 0.0 0.0 0.0 xyz
   end
   begin
      id 17
      name Neck
      direction 0.000000 1.000000 0.000000
      length 7.029632
      axis 0.0 0.0 0.0 xyz
      dof rx ry rz
   end
   begin
      id 18
      name Head
      direction 0.000000 1.000000 0.000000
      length 4.527550
      axis 0.0 0.0 0.0 xyz
      dof rx ry rz
   end
   begin
      id 19
      name LeftShoulder
      direction 1.000000 -0.000004 0.000000
      length 9.320257
      axis 0.0 0.0 -90.0 xyz
      dof rx ry rz
   end
   begin
      id 20
      name LeftArm
      direction 1.000000 -0.000004 0.000000
      length 12.801352
      axis 0.0 0.0 -90.0 xyz
      dof rx ry rz
   end
   begin
      id 21
      name LeftForeArm
      direction 1.000000 -0.000004 0.000000
      length 11.278127
      axis 0.0 0.0 -90.0 xyz
      dof rx ry rz
   end
   begin
      id 22
      name LeftHand
      direction 0.000000 0.000000 0.000000
      length 0.000000
      axis 0.0 0.0 -90.0 xyz
      dof rx ry rz
   end
   begin
      id 23
      name LeftHand_dum1
      direction 0.000000 0.000000 0.000000
      length 0.000000
      axis 0.0 0.0 -90.0 xyz
   end
   begin
      id 24
      name LeftHand_dum2
      direction 1.000000 -0.000004 0.000000
      length 3.937000
      axis 0.0 0.0 -90.0 xyz
   end
   begin
      id 25
      name LeftHandThumb
      direction 0.000000 0.000000 1.000000
      length 3.937000
      axis 0.0 0.0 -90.0 xyz
      dof rx ry rz
   end
   begin
      id 26
      name RightShoulder
      direction -1.000000 -0.000004 0.000000
      length 9.320257
      axis 0.0 0.0 90.0 xyz
      dof rx ry rz
   end
   begin
      id 27
      name RightArm
      direction -1.000000 -0.000004 0.000000
      length 12.801352
      axis 0.0 0.0 90.0 xyz
      dof rx ry rz
   end
   begin
      id 28
      name RightForeArm
      direction -1.000000 -0.000004 0.000000
      length 11.278127
      axis 0.0 0.0 90.0 xyz
      dof rx ry rz
   end
   begin
      id 29
      name RightHand
      direction 0.000000 0.000000 0.000000
      length 0.000000
      axis 0.0 0.0 90.0 xyz
      dof rx ry rz
   end
   begin
      id 30
      name RightHand_dum1
      direction 0.000000 0.000000 0.000000
      length 0.000000
      axis 0.0 0.0 90.0 xyz
   end
   begin
      id 31
      name RightHand_dum2
      direction -1.000000 -0.000004 0.000000
      length 5.393690
      axis 0.0 0.0 90.0 xyz
   end
   begin
      id 32
      name RightHandThumb
      direction 0.000000 0.000000 1.000000
      length 3.937000
      axis 0.0 0.0 90.0 xyz
      dof rx ry rz
   end
:hierarchy
   begin
      root LeftUpLeg_dum RightUpLeg_dum Spine_dum
      LeftUpLeg_dum LeftUpLeg
      RightUpLeg_dum RightUpLeg
      Spine_dum Spine
      LeftUpLeg LeftLeg
      LeftLeg LeftFoot
      LeftFoot LeftToeBase
      RightUpLeg RightLeg
      RightLeg RightFoot
      RightFoot RightToeBase
      Spine Spine1
      Spine1 Spine1_dum1 Spine1_dum2 Spine1_dum3
      Spine1_dum1 Neck
      Spine1_dum2 LeftShoulder
      Spine1_dum3 RightShoulder
      Neck Head
      LeftShoulder LeftArm
      LeftArm LeftForeArm
      LeftForeArm LeftHand
      LeftHand LeftHand_dum1 LeftHand_dum2
      LeftHand_dum1 LeftHandThumb
      RightShoulder RightArm
      RightArm RightForeArm
      RightForeArm RightHand
      RightHand RightHand_dum1 RightHand_dum2
      RightHand_dum1 RightHandThumb
   end

# File created by Blade
# Date/Time:  Mon Nov 15 14:56:25 2010
# Frame Rate: 200.000 fps
#------------------------------------------------------
:FULLY-SPECIFIED
:DEGREES
160
root  7.160067 39.718778 -85.343899 -15.505583 1.058613 2.339043
LeftUpLeg  18.534351 3.129361 -5.704188
LeftLeg  9.931655 -0.000000 0.000000
LeftFoot  -11.072155 14.531939 2.606859
LeftToeBase  -23.677245 0.000000 -0.000000
RightUpLeg  4.380646 -2.597286 -4.515870
RightLeg  30.359309 -0.000000 0.000000
RightFoot  -11.918567 -22.947587 -5.438378
RightToeBase  -32.570497 0.000000 -0.000000
Spine  13.004799 -1.462621 -1.892568
Spine1  3.302619 -0.505348 -5.738204
Neck  16.555006 -4.098026 -1.098380
Head  -22.617896 -4.790203 7.174730
LeftShoulder  -16.557318 13.183046 5.656061
LeftArm  4.229933 -23.763453 -58.646960
LeftForeArm  25.323100 -0.000000 0.000000
LeftHand  -6.593609 3.372689 -9.726405
LeftHandThumb  0.000000 -0.000000 0.000000
RightShoulder  -19.151237 -15.713349 -3.972183
RightArm  2.241359 3.355637 63.736101
RightForeArm  39.266381 -0.000000 0.000000
RightHand  -1.827108 -0.217112 14.741922
RightHandThumb  0.000000 -0.000000 0.000000
161
root  7.198008 39.704350 -85.300508 -15.411993 1.029662 2.477749
LeftUpLeg  18.651094 3.092136 -5.914455
LeftLeg  9.631998 -0.000000 0.000000
LeftFoot  -11.126841 14.528842 2.473963
LeftToeBase  -23.877142 0.000000 -0.000000
RightUpLeg  3.741293 -2.780408 -4.691042
RightLeg  31.067107 -0.000000 0.000000
RightFoot  -11.822803 -23.174414 -5.544327
RightToeBase  -32.154281 0.000000 -0.000000
Spine  12.940088 -1.495818 -1.924454
Spine1  3.430564 -0.541827 -5.917346
Neck  16.495786 -3.988415 -1.125674
Head  -22.617530 -4.772196 7.148451
LeftShoulder  -16.685357 13.320592 5.295003
LeftArm  4.945627 -23.083849 -59.163154
LeftForeArm  23.831903 -0.000000 0.000000
LeftHand  -6.657125 3.004920 -10.443173
LeftHandThumb  0.000000 -0.000000 0.000000
RightShoulder  -19.222754 -15.702787 -3.713266
RightArm  2.250960 2.502660 64.282498
RightForeArm  38.902517 -0.000000 0.000000
RightHand  -1.902595 -0.540405 15.155903
RightHandThumb  0.000000 -0.000000 0.000000
162
root  7.235147 39.691630 -85.259686 -15.254492 1.031020 2.612300
LeftUpLeg  18.677886 3.061093 -6.121610
LeftLeg  9.395853 -0.000000 0.000000
LeftFoot  -11.123609 14.577487 2.449791
LeftToeBase  -23.875045 0.000000 -0.000000
RightUpLeg  3.056933 -2.947635 -4.840031
RightLeg  31.674729 -0.000000 0.000000
RightFoot  -11.736142 -23.361118 -5.617603
RightToeBase  -32.004805 0.000000 -0.000000
Spine  12.830505 -1.559139 -1.961986
Spine1  3.534128 -0.612394 -6.093728
Neck  16.512623 -3.954883 -1.133179
Head  -22.704540 -4.686398 7.045391
LeftShoulder  -16.785925 13.441524 4.950385
LeftArm  5.641208 -22.468898 -59.722064
LeftForeArm  22.327652 -0.000000 0.000000
LeftHand  -6.714381 2.622415 -10.897491
LeftHandThumb  0.000000 -0.000000 0.000000
RightShoulder  -19.225421 -15.722468 -3.438395
RightArm  2.284487 1.708737 64.828961
RightForeArm  38.493257 -0.000000 0.000000
RightHand  -1.836250 -0.524291 15.463022
RightHandThumb  0.000000 -0.000000 0.000000
163
root  7.270512 39.680582 -85.216270 -15.096989 1.032009 2.746855
LeftUpLeg  18.704789 3.030147 -6.328774
LeftLeg  9.159707 -0.000000 0.000000
LeftFoot  -11.120398 14.626134 2.425616
LeftToeBase  -23.872947 0.000000 -0.000000
RightUpLeg  2.372904 -3.116627 -4.987032
RightLeg  32.282351 -0.000000 0.000000
RightFoot  -11.649097 -23.547720 -5.691290
RightToeBase  -31.855330 0.000000 -0.000000
Spine  12.720960 -1.622530 -1.999398
Spine1  3.637911 -0.682642 -6.270241
Neck  16.529455 -3.921349 -1.140675
Head  -22.791694 -4.600755 6.942213
LeftShoulder  -16.887291 13.561865 4.605374
LeftArm  6.327244 -21.847778 -60.270441
LeftForeArm  20.823401 -0.000000 0.000000
LeftHand  -6.768583 2.239470 -11.351298
LeftHandThumb  0.000000 -0.000000 0.000000
RightShoulder  -19.228186 -15.742136 -3.163497
RightArm  2.310429 0.914529 65.374786
RightForeArm  38.083997 -0.000000 0.000000
RightHand  -1.769819 -0.508533 15.770159
RightHandThumb  0.000000 -0.000000 0.000000
164
root  7.303166 39.671741 -85.161631 -15.065144 1.041918 2.772051
LeftUpLeg  18.896207 3.065402 -6.384523
LeftLeg  8.891191 -0.000000 0.000000
LeftFoot  -11.151449 14.596952 2.486472
LeftToeBase  -23.814847 0.000000 -0.000000
RightUpLeg  1.863770 -3.231797 -4.996731
RightLeg  32.776322 -0.000000 0.000000
RightFoot  -11.606142 -23.675394 -5.621998
RightToeBase  -31.669613 0.000000 -0.000000
Spine  12.706136 -1.675069 -2.003689
Spine1  3.714913 -0.729583 -6.308130
Neck  16.651908 -3.808254 -1.190849
Head  -22.929353 -4.543143 6.863646
LeftShoulder  -16.744437 13.334768 4.375320
LeftArm  6.441442 -21.254051 -60.725406
LeftForeArm  19.541576 -0.000000 0.000000
LeftHand  -7.006568 2.006852 -11.683165
LeftHandThumb  0.000000 -0.000000 0.000000
RightShoulder  -19.138878 -15.725235 -2.970071
RightArm  2.155089 0.238439 65.930084
RightForeArm  37.687825 -0.000000 0.000000
RightHand  -1.669964 -0.481571 16.019527
RightHandThumb  0.000000 -0.000000 0.000000
165
root  7.334320 39.663665 -85.108540 -15.033295 1.051813 2.797253
LeftUpLeg  19.087598 3.100843 -6.440155
LeftLeg  8.622675 -0.000000 0.000000
LeftFoot  -11.182528 14.567801 2.547336
LeftToeBase  -23.756747 0.000000 -0.000000
RightUpLeg  1.354597 -3.347049 -5.005404
RightLeg  33.270292 -0.000000 0.000000
RightFoot  -11.563313 -23.803115 -5.552742
RightToeBase  -31.483896 0.000000 -0.000000
Spine  12.691316 -1.727609 -2.007966
Spine1  3.791948 -0.776474 -6.346083
Neck  16.774247 -3.695053 -1.240775
Head  -23.067080 -4.485719 6.784946
LeftShoulder  -16.600782 13.108231 4.144899
LeftArm  6.550146 -20.659502 -61.177302
LeftForeArm  18.259750 -0.000000 0.000000
LeftHand  -7.243169 1.772863 -12.014018
LeftHandThumb  0.000000 -0.000000 0.000000
RightShoulder  -19.049519 -15.708624 -2.776633
RightArm  1.993200 -0.436111 66.487225
RightForeArm  37.291653 -0.000000 0.000000
RightHand  -1.569993 -0.455043 16.268941
RightHandThumb  0.000000 -0.000000 0.000000
166
root  7.365073 39.654642 -85.072334 -14.692437 1.099852 2.979590
LeftUpLeg  18.885448 2.885501 -6.762866
LeftLeg  8.447580 -0.000000 0.000000
LeftFoot  -11.135715 14.741074 2.441646
LeftToeBase  -23.884852 0.000000 -0.000000
RightUpLeg  0.478879 -3.502789 -5.150143
RightLeg  33.794360 -0.000000 0.000000
RightFoot  -11.535416 -23.915288 -5.600620
RightToeBase  -31.684335 0.000000 -0.000000
Spine  12.456572 -1.792798 -2.071774
Spine1  3.849489 -0.865727 -6.579837
Neck  16.627533 -3.599763 -1.234141
Head  -22.902136 -4.402587 6.756383
LeftShoulder  -16.732787 13.293800 3.854295
LeftArm  7.501172 -19.946001 -61.800394
LeftForeArm  16.447228 -0.000000 0.000000
LeftHand  -6.606340 1.415744 -12.160693
LeftHandThumb  0.000000 -0.000000 0.000000
RightShoulder  -19.080203 -15.796213 -2.418780
RightArm  2.151094 -1.138041 67.037619
RightForeArm  36.730784 -0.000000 0.000000
RightHand  -1.619608 -0.683760 16.475289
RightHandThumb  0.000000 -0.000000 0.000000
167
root  7.394819 39.646028 -85.036692 -14.351423 1.146805 3.162213
LeftUpLeg  18.684552 2.669026 -7.084755
LeftLeg  8.272485 -0.000000 0.000000
LeftFoot  -11.089194 14.914430 2.336019
LeftToeBase  -24.012957 0.000000 -0.000000
RightUpLeg  -0.396592 -3.660718 -5.292504
RightLeg  34.318428 -0.000000 0.000000
RightFoot  -11.507391 -24.027440 -5.648599
RightToeBase  -31.884774 0.000000 -0.000000
Spine  12.221892 -1.858248 -2.135315
Spine1  3.907396 -0.954744 -6.813687
Neck  16.480846 -3.504457 -1.227752
Head  -22.737251 -4.319374 6.728062
LeftShoulder  -16.865860 13.478715 3.563028
LeftArm  8.439693 -19.222962 -62.408087
LeftForeArm  14.634707 -0.000000 0.000000
LeftHand  -5.968684 1.060277 -12.311308
LeftHandThumb  0.000000 -0.000000 0.000000
RightShoulder  -19.111470 -15.883617 -2.060723
RightArm  2.302284 -1.841452 67.586251
RightForeArm  36.169916 -0.000000 0.000000
RightHand  -1.670050 -0.912296 16.681846
RightHandThumb  0.000000 -0.000000 0.000000
168
root  7.423068 39.638834 -84.987394 -14.198090 1.180981 3.227381
LeftUpLeg  18.738523 2.560593 -7.230421
LeftLeg  8.011648 -0.000000 0.000000
LeftFoot  -11.063943 14.991623 2.322426
LeftToeBase  -24.136472 0.000000 -0.000000
RightUpLeg  -1.022331 -3.770279 -5.302805
RightLeg  34.703411 -0.000000 0.000000
RightFoot  -11.438567 -24.071431 -5.653065
RightToeBase  -32.003766 0.000000 -0.000000
Spine  12.147741 -1.901657 -2.144027
Spine1  3.933930 -1.000782 -6.909282
Neck  16.504397 -3.402117 -1.262776
Head  -22.764409 -4.266725 6.706270
LeftShoulder  -16.750184 13.450558 3.353431
LeftArm  8.951758 -18.855076 -63.085128
LeftForeArm  13.211995 -0.000000 0.000000
LeftHand  -6.068153 1.167048 -12.156153
LeftHandThumb  0.000000 -0.000000 0.000000
RightShoulder  -19.117808 -15.897912 -1.801372
RightArm  2.268536 -2.477130 68.147056
RightForeArm  35.645817 -0.000000 0.000000
RightHand  -1.685738 -1.024482 16.817698
RightHandThumb  0.000000 -0.000000 0.000000
169
root  7.450570 39.632391 -84.933480 -14.044717 1.214983 3.292641
LeftUpLeg  18.792765 2.452299 -7.376177
LeftLeg  7.750811 -0.000000 0.000000
LeftFoot  -11.038702 15.068821 2.308863
LeftToeBase  -24.259987 0.000000 -0.000000
RightUpLeg  -1.648131 -3.879946 -5.311907
RightLeg  35.088393 -0.000000 0.000000
RightFoot  -11.369716 -24.115419 -5.657589
RightToeBase  -32.122758 0.000000 -0.000000
Spine  12.073595 -1.945077 -2.152682
Spine1  3.960541 -1.046775 -7.004899
Neck  16.527883 -3.299761 -1.297755
Head  -22.791586 -4.214088 6.684455
LeftShoulder  -16.634416 13.422812 3.143800
LeftArm  9.458085 -18.481516 -63.757198
LeftForeArm  11.789283 -0.000000 0.000000
LeftHand  -6.167336 1.274087 -12.001176
LeftHandThumb  0.000000 -0.000000 0.000000
RightShoulder  -19.124215 -15.912179 -1.542000
RightArm  2.228539 -3.112448 68.708539
RightForeArm  35.121719 -0.000000 0.000000
RightHand  -1.701694 -1.136630 16.953586
RightHandThumb  0.000000 -0.000000 0.000000
170
root  7.478241 39.626279 -84.880096 -13.910898 1.266916 3.338403
LeftUpLeg  18.862909 2.370890 -7.488778
LeftLeg  7.521843 -0.000000 0.000000
LeftFoot  -11.036314 15.104575 2.301449
LeftToeBase  -24.189566 0.000000 -0.000000
RightUpLeg  -2.235710 -4.022683 -5.296942
RightLeg  35.417882 -0.000000 0.000000
RightFoot  -11.296831 -24.077071 -5.664252
RightToeBase  -32.082703 0.000000 -0.000000
Spine  12.037769 -2.008028 -2.167270
Spine1  3.939054 -1.117727 -7.076957
Neck  16.578087 -3.206309 -1.313055
Head  -22.792602 -4.123154 6.641455
LeftShoulder  -16.535732 13.354291 2.956748
LeftArm  9.790749 -18.033311 -64.419706
LeftForeArm  10.720663 -0.000000 0.000000
LeftHand  -6.524980 1.580198 -11.824384
LeftHandThumb  0.000000 -0.000000 0.000000
RightShoulder  -19.097232 -16.010289 -1.276556
RightArm  2.284258 -3.690645 69.262033
RightForeArm  34.519749 -0.000000 0.000000
RightHand  -1.745922 -1.298163 17.063304
RightHandThumb  0.000000 -0.000000 0.000000
171
root  7.505092 39.620761 -84.824713 -13.777035 1.318742 3.384288
LeftUpLeg  18.933209 2.289619 -7.601472
LeftLeg  7.292876 -0.000000 0.000000
LeftFoot  -11.033930 15.140329 2.294035
LeftToeBase  -24.119145 0.000000 -0.000000
RightUpLeg  -2.823431 -4.165260 -5.280508
RightLeg  35.747370 -0.000000 0.000000
RightFoot  -11.223973 -24.038716 -5.670860
RightToeBase  -32.042649 0.000000 -0.000000
Spine  12.001957 -2.070989 -2.181819
Spine1  3.917656 -1.188706 -7.148991
Neck  16.628262 -3.112842 -1.328272
Head  -22.793687 -4.032221 6.598458
LeftShoulder  -16.436847 13.286084 2.769629
LeftArm  10.117117 -17.581495 -65.077804
LeftForeArm  9.652042 -0.000000 0.000000
LeftHand  -6.881735 1.887404 -11.649477
LeftHandThumb  0.000000 -0.000000 0.000000
RightShoulder  -19.070709 -16.108519 -1.011029
RightArm  2.334412 -4.269352 69.815352
RightForeArm  33.917779 -0.000000 0.000000
RightHand  -1.790463 -1.459611 17.173153
RightHandThumb  0.000000 -0.000000 0.000000
